<?xml version="1.0" encoding="utf-8"?>
<!-- Generator: Adobe Illustrator 16.0.0, SVG Export Plug-In . SVG Version: 6.00 Build 0)  -->
<!DOCTYPE svg PUBLIC "-//W3C//DTD SVG 1.1//EN" "http://www.w3.org/Graphics/SVG/1.1/DTD/svg11.dtd">
<svg version="1.1" id="レイヤー_1" xmlns="http://www.w3.org/2000/svg" xmlns:xlink="http://www.w3.org/1999/xlink" x="0px"
	 y="0px" width="101px" height="81px" viewBox="0 0 101 81" enable-background="new 0 0 101 81" xml:space="preserve">
<g>
	<path fill="#2F2F2F" d="M24.27,44.229c0.992,8.696-3.493,16.351-10.016,17.094C7.731,62.064,1.64,55.617,0.649,46.92
		c-0.991-8.697,3.493-16.351,10.016-17.094C17.188,29.083,23.279,35.531,24.27,44.229z"/>
	<path fill="#2F2F2F" d="M47.288,15.271c0.724,8.723-3.993,16.234-10.536,16.777c-6.543,0.542-12.433-6.089-13.156-14.813
		C22.872,8.511,27.589,0.999,34.131,0.457C40.674-0.086,46.564,6.546,47.288,15.271z"/>
	<path fill="#2F2F2F" d="M76.539,17.869c-1.189,8.673-7.43,14.979-13.934,14.085c-6.502-0.893-10.812-8.646-9.619-17.319
		c1.191-8.673,7.43-14.979,13.934-14.084C73.424,1.443,77.73,9.197,76.539,17.869z"/>
	<path fill="#2F2F2F" d="M100.348,46.939c-1.01,8.696-7.111,15.135-13.633,14.379c-6.52-0.754-10.992-8.416-9.984-17.11
		c1.006-8.696,7.109-15.134,13.631-14.378C96.883,30.584,101.352,38.246,100.348,46.939z"/>
	<path fill="#2F2F2F" d="M50.65,36.711c-10.941,0-31.851,25.279-31.851,31.844c0,6.565,5.322,11.889,11.887,11.889
		c4.613,0,16.565-4.106,19.964-4.106c3.28,0,15.055,4.238,19.661,4.238c6.564,0,11.89-5.322,11.89-11.888
		C82.199,62.17,61.592,36.711,50.65,36.711z"/>
</g>
</svg>
